<mxfile host="65bd71144e">
    <diagram id="fKM749TLbANpAOGW7Nhf" name="Page-1">
        <mxGraphModel dx="810" dy="566" grid="1" gridSize="9" guides="1" tooltips="1" connect="1" arrows="1" fold="1" page="1" pageScale="1" pageWidth="850" pageHeight="1100" math="0" shadow="0">
            <root>
                <mxCell id="0"/>
                <mxCell id="1" parent="0"/>
                <mxCell id="3" value="&lt;br&gt;&lt;br&gt;&lt;br&gt;&lt;br&gt;&lt;br&gt;&lt;br&gt;&lt;br&gt;&lt;br&gt;&lt;br&gt;&lt;br&gt;# __init__(self, name, height, weight, national_id)&lt;br&gt;# get_height()&lt;br&gt;# get_weight()&lt;br&gt;- get_national_id" style="whiteSpace=wrap;html=1;aspect=fixed;" vertex="1" parent="1">
                    <mxGeometry x="81" y="10" width="239" height="239" as="geometry"/>
                </mxCell>
                <mxCell id="5" value="Person" style="rounded=0;whiteSpace=wrap;html=1;" vertex="1" parent="1">
                    <mxGeometry x="81" y="10" width="239" height="60" as="geometry"/>
                </mxCell>
                <mxCell id="8" value="+ name&lt;br&gt;# height&lt;br&gt;# weight&lt;br&gt;- national_id" style="rounded=0;whiteSpace=wrap;html=1;" vertex="1" parent="1">
                    <mxGeometry x="81" y="70" width="239" height="80" as="geometry"/>
                </mxCell>
                <mxCell id="15" value="&lt;br&gt;&lt;br&gt;&lt;br&gt;&lt;br&gt;&lt;br&gt;&lt;br&gt;&lt;br&gt;&lt;br&gt;+ __init__(self,name, height, weight, national_id, roll, section, marks)&lt;br&gt;+ super().__init__(name, height, weight, national_id)&lt;br&gt;# get_marks()" style="rounded=0;whiteSpace=wrap;html=1;" vertex="1" parent="1">
                    <mxGeometry x="80" y="410" width="239" height="280" as="geometry"/>
                </mxCell>
                <mxCell id="16" value="" style="shape=flexArrow;endArrow=classic;html=1;endWidth=16;endSize=8.1;width=8;fillColor=#f5f5f5;strokeColor=#666666;" edge="1" parent="1">
                    <mxGeometry width="50" height="50" relative="1" as="geometry">
                        <mxPoint x="193" y="410" as="sourcePoint"/>
                        <mxPoint x="193" y="250" as="targetPoint"/>
                    </mxGeometry>
                </mxCell>
                <mxCell id="17" value="Student" style="rounded=0;whiteSpace=wrap;html=1;" vertex="1" parent="1">
                    <mxGeometry x="80" y="410" width="240" height="60" as="geometry"/>
                </mxCell>
                <mxCell id="19" value="+ roll&lt;br&gt;+ section&lt;br&gt;- marks" style="rounded=0;whiteSpace=wrap;html=1;" vertex="1" parent="1">
                    <mxGeometry x="80" y="470" width="240" height="70" as="geometry"/>
                </mxCell>
                <mxCell id="20" value="&lt;br&gt;&lt;br&gt;&lt;br&gt;&lt;br&gt;&lt;br&gt;+ __init__(self, color, company)&lt;br&gt;&lt;i&gt;- buy_bag()&lt;/i&gt;" style="rounded=0;whiteSpace=wrap;html=1;" vertex="1" parent="1">
                    <mxGeometry x="460" y="80" width="150" height="200" as="geometry"/>
                </mxCell>
                <mxCell id="21" value="Bag" style="rounded=0;whiteSpace=wrap;html=1;" vertex="1" parent="1">
                    <mxGeometry x="460" y="80" width="150" height="50" as="geometry"/>
                </mxCell>
                <mxCell id="22" value="+ color&lt;br&gt;+ company" style="rounded=0;whiteSpace=wrap;html=1;" vertex="1" parent="1">
                    <mxGeometry x="460" y="130" width="150" height="60" as="geometry"/>
                </mxCell>
                <mxCell id="23" value="1..*" style="text;html=1;align=center;verticalAlign=middle;resizable=0;points=[];autosize=1;strokeColor=none;fillColor=none;" vertex="1" parent="1">
                    <mxGeometry x="135" y="370" width="30" height="20" as="geometry"/>
                </mxCell>
                <mxCell id="29" value="" style="endArrow=diamondThin;endFill=1;endSize=24;html=1;exitX=0.5;exitY=1;exitDx=0;exitDy=0;entryX=0.683;entryY=-0.04;entryDx=0;entryDy=0;entryPerimeter=0;fillColor=#f5f5f5;strokeColor=#666666;targetPerimeterSpacing=0;" edge="1" parent="1" source="20" target="17">
                    <mxGeometry width="160" relative="1" as="geometry">
                        <mxPoint x="350" y="370" as="sourcePoint"/>
                        <mxPoint x="510" y="370" as="targetPoint"/>
                        <Array as="points">
                            <mxPoint x="535" y="340"/>
                            <mxPoint x="387" y="340"/>
                            <mxPoint x="244" y="340"/>
                        </Array>
                    </mxGeometry>
                </mxCell>
            </root>
        </mxGraphModel>
    </diagram>
</mxfile>